<svg width="32" height="32" viewBox="0 0 32 32" fill="none" xmlns="http://www.w3.org/2000/svg">
  <defs>
    <linearGradient id="gradient32" x1="0%" y1="0%" x2="100%" y2="100%">
      <stop offset="0%" style="stop-color:#667eea;stop-opacity:1" />
      <stop offset="100%" style="stop-color:#764ba2;stop-opacity:1" />
    </linearGradient>
    <filter id="shadow32" x="-20%" y="-20%" width="140%" height="140%">
      <feDropShadow dx="0" dy="1" stdDeviation="1" flood-color="rgba(0,0,0,0.2)"/>
    </filter>
  </defs>
  
  <!-- 背景圆角矩形 -->
  <rect x="2" y="2" width="28" height="28" rx="6" ry="6" fill="url(#gradient32)" filter="url(#shadow32)"/>
  
  <!-- 主图标 -->
  <g fill="white">
    <!-- 主对话气泡 -->
    <path d="M6 9C6 7.34 7.34 6 9 6h14C24.66 6 26 7.34 26 9v8C26 18.66 24.66 20 23 20H14l-4 3v-3H9C7.34 20 6 18.66 6 17V9z" fill="white" opacity="0.95"/>
    
    <!-- 提示点 -->
    <circle cx="12" cy="13" r="1" fill="url(#gradient32)"/>
    <circle cx="16" cy="13" r="1" fill="url(#gradient32)"/>
    <circle cx="20" cy="13" r="1" fill="url(#gradient32)"/>
    
    <!-- 小装饰气泡 -->
    <circle cx="8" cy="24" r="2" fill="white" opacity="0.6"/>
    <circle cx="24" cy="8" r="1.5" fill="white" opacity="0.4"/>
  </g>
  
  <!-- 高光效果 -->
  <path d="M8 2C5.79 2 4 3.79 4 6v2c0-2.21 1.79-4 4-4h16c2.21 0 4 1.79 4 4V6c0-2.21-1.79-4-4-4H8z" fill="white" opacity="0.2"/>
</svg>