<svg width="128" height="128" viewBox="0 0 128 128" fill="none" xmlns="http://www.w3.org/2000/svg">
  <defs>
    <linearGradient id="gradient128" x1="0%" y1="0%" x2="100%" y2="100%">
      <stop offset="0%" style="stop-color:#667eea;stop-opacity:1" />
      <stop offset="30%" style="stop-color:#6b7eeb;stop-opacity:1" />
      <stop offset="70%" style="stop-color:#7159a6;stop-opacity:1" />
      <stop offset="100%" style="stop-color:#764ba2;stop-opacity:1" />
    </linearGradient>
    <linearGradient id="bubbleGradient128" x1="0%" y1="0%" x2="100%" y2="100%">
      <stop offset="0%" style="stop-color:#ffffff;stop-opacity:1" />
      <stop offset="50%" style="stop-color:#fafbfc;stop-opacity:1" />
      <stop offset="100%" style="stop-color:#f1f3f4;stop-opacity:1" />
    </linearGradient>
    <linearGradient id="dotGradient128" x1="0%" y1="0%" x2="100%" y2="100%">
      <stop offset="0%" style="stop-color:#667eea;stop-opacity:1" />
      <stop offset="100%" style="stop-color:#764ba2;stop-opacity:1" />
    </linearGradient>
    <filter id="shadow128" x="-20%" y="-20%" width="140%" height="140%">
      <feDropShadow dx="0" dy="4" stdDeviation="4" flood-color="rgba(0,0,0,0.3)"/>
    </filter>
    <filter id="innerShadow128" x="-50%" y="-50%" width="200%" height="200%">
      <feDropShadow dx="0" dy="2" stdDeviation="2" flood-color="rgba(0,0,0,0.1)"/>
    </filter>
    <filter id="glow128" x="-50%" y="-50%" width="200%" height="200%">
      <feGaussianBlur stdDeviation="2" result="coloredBlur"/>
      <feMerge> 
        <feMergeNode in="coloredBlur"/>
        <feMergeNode in="SourceGraphic"/> 
      </feMerge>
    </filter>
  </defs>
  
  <!-- 背景圆角矩形 -->
  <rect x="8" y="8" width="112" height="112" rx="24" ry="24" fill="url(#gradient128)" filter="url(#shadow128)"/>
  
  <!-- 主图标组 -->
  <g>
    <!-- 主对话气泡 -->
    <path d="M24 36C24 29.37 29.37 24 36 24h56C99.63 24 105 29.37 105 36v32C105 74.63 99.63 80 92 80H56l-16 12V80h-4C29.37 80 24 74.63 24 68V36z" 
          fill="url(#bubbleGradient128)" 
          filter="url(#innerShadow128)" 
          opacity="0.98"/>
    
    <!-- 提示点组 -->
    <g filter="url(#glow128)">
      <circle cx="48" cy="52" r="4" fill="url(#dotGradient128)"/>
      <circle cx="64" cy="52" r="4" fill="url(#dotGradient128)"/>
      <circle cx="80" cy="52" r="4" fill="url(#dotGradient128)"/>
    </g>
    
    <!-- 装饰元素 -->
    <g opacity="0.7">
      <!-- 大装饰气泡 -->
      <circle cx="32" cy="96" r="8" fill="white" opacity="0.6"/>
      <circle cx="96" cy="32" r="6" fill="white" opacity="0.5"/>
      <circle cx="16" cy="48" r="4" fill="white" opacity="0.4"/>
      <circle cx="112" cy="80" r="3" fill="white" opacity="0.3"/>
      
      <!-- 星形装饰 -->
      <g fill="white" opacity="0.4">
        <path d="M112 64l-4-4 4-4-4-4 4-4-4 4-4-4 4 4-4 4 4 4-4 4 4-4z"/>
        <path d="M16 16l-2-2 2-2-2-2 2-2-2 2-2-2 2 2-2 2 2 2-2 2 2-2z"/>
        <path d="M16 112l-2-2 2-2-2-2 2-2-2 2-2-2 2 2-2 2 2 2-2 2 2-2z"/>
      </g>
      
      <!-- 小圆点装饰 -->
      <circle cx="20" cy="80" r="2" fill="white" opacity="0.3"/>
      <circle cx="108" cy="48" r="2" fill="white" opacity="0.3"/>
      <circle cx="88" cy="16" r="1.5" fill="white" opacity="0.2"/>
      <circle cx="40" cy="112" r="1.5" fill="white" opacity="0.2"/>
    </g>
    
    <!-- 文字提示装饰 -->
    <g opacity="0.3" fill="white">
      <rect x="28" y="100" width="12" height="2" rx="1" fill="white"/>
      <rect x="28" y="104" width="8" height="2" rx="1" fill="white"/>
      
      <rect x="100" y="20" width="8" height="1.5" rx="0.75" fill="white"/>
      <rect x="100" y="23" width="6" height="1.5" rx="0.75" fill="white"/>
    </g>
  </g>
  
  <!-- 高光效果 -->
  <path d="M32 8C18.75 8 8 18.75 8 32v8c0-13.25 10.75-24 24-24h64c13.25 0 24 10.75 24 24v-8c0-13.25-10.75-24-24-24H32z" 
        fill="white" 
        opacity="0.4"/>
  
  <!-- 内部高光 -->
  <path d="M36 24C29.37 24 24 29.37 24 36v4c0-6.63 5.37-12 12-12h56c6.63 0 12 5.37 12 12v-4c0-6.63-5.37-12-12-12H36z" 
        fill="white" 
        opacity="0.5"/>
  
  <!-- 边缘光晕 -->
  <rect x="8" y="8" width="112" height="112" rx="24" ry="24" 
        fill="none" 
        stroke="url(#gradient128)" 
        stroke-width="0.5" 
        opacity="0.6"/>
  
  <!-- 内部边框 -->
  <path d="M36 24C29.37 24 24 29.37 24 36v32c0 6.63 5.37 12 12 12h4v12l16-12h36c6.63 0 12-5.37 12-12V36c0-6.63-5.37-12-12-12H36z" 
        fill="none" 
        stroke="white" 
        stroke-width="0.5" 
        opacity="0.3"/>
</svg>